<?xml version="1.0" encoding="UTF-8"?> <svg xmlns="http://www.w3.org/2000/svg" width="781" height="189" viewBox="0 0 781 189" fill="none"><path d="M394.15 0H371.873V189H394.15V0Z" fill="black"></path><path d="M236.813 0H214.537V189H236.813V0Z" fill="black"></path><path d="M181.418 188.182H159.142L103.847 57.8841L114.567 31.0537L181.418 188.182Z" fill="black"></path><path d="M602.312 188.182H580.036L524.742 57.8841L535.462 31.0537L602.312 188.182Z" fill="black"></path><path d="M22.2761 189H0L80.6909 0H102.967L22.2761 189Z" fill="black"></path><path d="M442.936 189H420.66L501.351 0H523.627L442.936 189Z" fill="black"></path><path d="M639.521 189H617.245L757.61 0H779.886L639.521 189Z" fill="black"></path><path d="M758.724 189H781L728.112 116.9L715.91 132.808L758.724 189Z" fill="black"></path><path d="M671.481 71.697L682.836 56.9655L640.635 0H618.359L671.481 71.697Z" fill="black"></path><path d="M281.008 0H261.307V21.3075H282.479C303.073 22.0804 319.588 39.1645 319.588 60.0574C319.588 80.9504 303.073 98.0344 282.479 98.8074H261.307V120.115H281.008C314.005 120.115 340.76 93.2285 340.76 60.0462C340.749 26.8864 314.005 0 281.008 0Z" fill="black"></path></svg> 