<?xml version="1.0" encoding="UTF-8"?> <svg xmlns="http://www.w3.org/2000/svg" width="782" height="115" viewBox="0 0 782 115" fill="none"><g clip-path="url(#clip0)"><path d="M297.065 3.17407C302.024 3.17407 306.508 3.86705 310.535 5.24445C314.563 6.6304 318.021 8.67511 320.91 11.3871C323.799 14.0992 326.015 17.4015 327.567 21.2941C329.12 25.1868 329.887 29.5928 329.887 34.5035C329.887 39.4228 329.111 43.8202 327.567 47.7128C326.015 51.6055 323.799 54.9078 320.91 57.6198C318.021 60.3319 314.563 62.3851 310.535 63.7625C306.508 65.1485 302.015 65.8329 297.065 65.8329H258.508V112.836H247.978V3.17407H297.065ZM294.745 56.9354C302.075 56.9354 308.009 55.096 312.553 51.4087C317.098 47.7214 319.366 42.092 319.366 34.512C319.366 26.9321 317.098 21.3027 312.553 17.6154C308.009 13.9281 302.075 12.0887 294.745 12.0887H258.516V56.944H294.745V56.9354Z" fill="black"></path><path d="M345.686 45.8819C347.333 42.5026 349.584 39.7392 352.421 37.5833C355.259 35.4359 358.587 33.8447 362.408 32.818C366.228 31.7999 370.462 31.2781 375.102 31.2781C378.612 31.2781 382.122 31.6117 385.632 32.279C389.142 32.9464 392.289 34.1954 395.075 36.0434C397.86 37.8827 400.128 40.475 401.888 43.803C403.638 47.131 404.518 51.46 404.518 56.7814V98.8647C404.518 102.757 406.424 104.699 410.244 104.699C411.382 104.699 412.409 104.494 413.34 104.083V112.228C412.202 112.433 411.201 112.587 410.322 112.69C409.442 112.793 408.33 112.844 406.993 112.844C404.518 112.844 402.526 112.51 401.034 111.843C399.533 111.176 398.378 110.226 397.55 109.003C396.722 107.771 396.179 106.316 395.929 104.622C395.67 102.928 395.54 101.063 395.54 99.0187H395.23C393.471 101.577 391.694 103.861 389.892 105.854C388.081 107.848 386.072 109.516 383.855 110.851C381.63 112.185 379.103 113.203 376.266 113.922C373.429 114.641 370.048 115 366.125 115C362.408 115 358.924 114.564 355.673 113.691C352.421 112.818 349.584 111.441 347.161 109.542C344.738 107.651 342.823 105.238 341.435 102.321C340.038 99.4037 339.348 95.9474 339.348 91.9521C339.348 86.4254 340.589 82.0964 343.065 78.9737C345.54 75.8511 348.817 73.4727 352.896 71.8301C356.975 70.196 361.563 69.0411 366.677 68.3737C371.782 67.7064 376.973 67.0648 382.234 66.4574C384.295 66.252 386.106 65.9954 387.65 65.6874C389.193 65.3794 390.487 64.8404 391.522 64.0704C392.557 63.3005 393.35 62.2567 393.919 60.9221C394.488 59.596 394.773 57.8508 394.773 55.7034C394.773 52.4267 394.23 49.7404 393.152 47.6358C392.065 45.5397 390.573 43.8714 388.659 42.6395C386.753 41.4075 384.528 40.5691 382.001 40.1071C379.474 39.6451 376.758 39.4141 373.869 39.4141C367.677 39.4141 362.615 40.8771 358.691 43.7944C354.767 46.7118 352.706 51.4001 352.499 57.8508H342.745C343.056 53.2566 344.03 49.2613 345.686 45.8819ZM394.454 69.5373C393.833 70.6666 392.652 71.4793 390.892 71.9926C389.133 72.5059 387.589 72.8653 386.244 73.0706C382.113 73.7892 377.853 74.4309 373.472 74.987C369.083 75.5516 365.081 76.3986 361.476 77.5193C357.863 78.6486 354.896 80.257 352.577 82.3616C350.257 84.4577 349.093 87.4606 349.093 91.3447C349.093 93.8 349.584 95.9816 350.567 97.8723C351.55 99.7716 352.861 101.406 354.517 102.792C356.164 104.178 358.079 105.221 360.243 105.94C362.408 106.659 364.633 107.018 366.901 107.018C370.618 107.018 374.179 106.453 377.586 105.333C380.992 104.203 383.959 102.569 386.485 100.413C389.012 98.2659 391.03 95.648 392.522 92.5766C394.014 89.5053 394.764 86.0233 394.764 82.1306V69.5373H394.454Z" fill="black"></path><path d="M433.011 33.5881V52.1701H433.321C435.796 45.7194 439.643 40.7488 444.86 37.2668C450.069 33.7848 456.295 32.2021 463.513 32.5015V42.1776C459.072 41.9722 455.045 42.5625 451.44 43.9399C447.827 45.3259 444.705 47.2936 442.075 49.8516C439.444 52.4097 437.4 55.4553 435.96 58.9887C434.512 62.522 433.796 66.389 433.796 70.5896V112.827H424.034V33.5881H433.011Z" fill="black"></path><path d="M495.249 33.5881V41.7328H478.993V95.1861C478.993 98.3601 479.433 100.85 480.313 102.638C481.192 104.434 483.383 105.427 486.893 105.632C489.678 105.632 492.464 105.478 495.258 105.17V113.315C493.809 113.315 492.369 113.366 490.92 113.469C489.471 113.571 488.031 113.623 486.582 113.623C480.08 113.623 475.535 112.374 472.957 109.858C470.378 107.352 469.136 102.715 469.24 95.9561V41.7328V33.5881V9.77881H478.993V33.5881H495.249Z" fill="black"></path><path d="M518.939 33.588V47.2593H519.249C521.103 42.4513 524.406 38.5843 529.158 35.6584C533.901 32.741 539.119 31.2781 544.793 31.2781C550.364 31.2781 555.038 31.9967 558.807 33.4254C562.575 34.8627 565.594 36.8818 567.862 39.4911C570.13 42.1005 571.734 45.3002 572.665 49.0902C573.597 52.8801 574.062 57.1321 574.062 61.8375V112.836H564.309V63.3946C564.309 60.0152 563.998 56.8669 563.377 53.9496C562.756 51.0322 561.678 48.4998 560.126 46.3439C558.583 44.1965 556.487 42.5026 553.857 41.2792C551.226 40.0472 547.949 39.4398 544.026 39.4398C540.102 39.4398 536.618 40.1328 533.573 41.5102C530.529 42.8961 527.942 44.7869 525.829 47.1909C523.716 49.5949 522.061 52.4695 520.871 55.7889C519.68 59.1169 519.034 62.7273 518.939 66.6199V112.853H509.185V33.588H518.939Z" fill="black"></path><path d="M599.684 86.6649C600.667 90.4035 602.236 93.7572 604.41 96.7259C606.574 99.6946 609.308 102.158 612.619 104.101C615.922 106.043 619.898 107.018 624.538 107.018C631.661 107.018 637.232 105.178 641.259 101.491C645.286 97.8039 648.072 92.8931 649.624 86.7419H659.378C657.308 95.7506 653.522 102.715 647.994 107.634C642.475 112.553 634.653 115.009 624.538 115.009C618.242 115.009 612.792 113.905 608.204 111.706C603.608 109.507 599.865 106.487 596.976 102.646C594.087 98.8048 591.948 94.3475 590.551 89.2828C589.154 84.2181 588.464 78.8625 588.464 73.2331C588.464 68.0144 589.163 62.8898 590.551 57.8764C591.948 52.863 594.087 48.38 596.976 44.4361C599.865 40.4921 603.608 37.3181 608.204 34.914C612.792 32.51 618.242 31.3037 624.538 31.3037C630.936 31.3037 636.404 32.587 640.949 35.145C645.493 37.7031 649.176 41.0567 652.022 45.206C654.859 49.3553 656.903 54.1121 658.136 59.4933C659.369 64.8746 659.887 70.3243 659.688 75.851H598.218C598.218 79.3159 598.701 82.9262 599.684 86.6649ZM647.994 57.0893C646.804 53.71 645.131 50.7156 642.967 48.1063C640.802 45.4969 638.163 43.4009 635.067 41.8096C631.971 40.2269 628.461 39.4312 624.538 39.4312C620.51 39.4312 616.949 40.2269 613.853 41.8096C610.757 43.4009 608.126 45.4969 605.953 48.1063C603.78 50.7156 602.055 53.7356 600.77 57.1663C599.477 60.597 598.623 64.1046 598.218 67.6893H649.935C649.823 64.002 649.176 60.4686 647.994 57.0893Z" fill="black"></path><path d="M681.826 33.5881V52.1701H682.136C684.611 45.7194 688.457 40.7488 693.675 37.2668C698.884 33.7848 705.11 32.2021 712.328 32.5015V42.1776C707.887 41.9722 703.86 42.5625 700.255 43.9399C696.641 45.3259 693.52 47.2936 690.889 49.8516C688.259 52.4097 686.215 55.4553 684.775 58.9887C683.326 62.522 682.61 66.389 682.61 70.5896V112.827H672.857V33.5881H681.826Z" fill="black"></path><path d="M767.598 49.0303C766.46 46.8315 764.942 45.0093 763.028 43.5805C761.113 42.1518 758.923 41.0995 756.448 40.4322C753.973 39.7649 751.342 39.4312 748.548 39.4312C746.384 39.4312 744.185 39.6622 741.968 40.1242C739.743 40.5862 737.708 41.3562 735.854 42.4256C734 43.5035 732.499 44.9066 731.361 46.6519C730.223 48.3972 729.653 50.5445 729.653 53.1026C729.653 55.2499 730.197 57.0722 731.283 58.5523C732.37 60.0409 733.732 61.29 735.388 62.3166C737.035 63.3432 738.846 64.1902 740.804 64.849C742.762 65.5163 744.573 66.0553 746.22 66.4659L759.224 69.3833C762.01 69.7939 764.77 70.5382 767.512 71.6076C770.246 72.6856 772.669 74.0887 774.79 75.8339C776.903 77.5792 778.637 79.7266 779.973 82.2846C781.31 84.8426 781.983 87.8712 781.983 91.3446C781.983 95.648 781 99.3096 779.042 102.33C777.076 105.35 774.575 107.805 771.531 109.704C768.486 111.604 765.054 112.955 761.234 113.777C757.413 114.598 753.645 115.009 749.928 115.009C740.537 115.009 732.922 112.81 727.092 108.404C721.262 103.998 717.934 96.9398 717.106 87.2039H726.859C727.273 93.7572 729.671 98.7022 734.06 102.03C738.45 105.358 743.891 107.018 750.394 107.018C752.765 107.018 755.214 106.761 757.75 106.248C760.277 105.735 762.631 104.862 764.795 103.639C766.96 102.407 768.745 100.85 770.134 98.9503C771.531 97.0596 772.221 94.724 772.221 91.9606C772.221 89.6079 771.729 87.6317 770.746 86.0489C769.763 84.4662 768.443 83.1316 766.796 82.0536C765.14 80.9757 763.26 80.0859 761.148 79.3673C759.035 78.6486 756.887 78.0412 754.723 77.5279L742.184 74.7645C738.984 73.9432 736.044 73.0021 733.362 71.9242C730.68 70.8462 728.334 69.5201 726.316 67.9289C724.307 66.3461 722.728 64.3955 721.59 62.0942C720.452 59.7928 719.891 56.9524 719.891 53.5731C719.891 49.5778 720.797 46.1471 722.599 43.2811C724.401 40.4151 726.756 38.1137 729.645 36.3684C732.534 34.6317 735.759 33.3484 739.321 32.5271C742.882 31.7058 746.418 31.2952 749.928 31.2952C753.955 31.2952 757.689 31.8085 761.156 32.8351C764.614 33.8617 767.659 35.4445 770.289 37.6004C772.919 39.7478 775.015 42.417 776.558 45.591C778.111 48.765 778.982 52.5037 779.189 56.807H769.435C769.357 53.8127 768.737 51.229 767.598 49.0303Z" fill="black"></path><path d="M128.193 1.75391H106.53V112.536H128.193V1.75391Z" fill="black"></path><path d="M21.6631 112.528H0L41.2305 1.75391H62.8936L21.6631 112.528Z" fill="black"></path><path d="M105.495 112.528H83.8322L41.2305 1.75391H62.8936L105.495 112.528Z" fill="black"></path><path d="M157.557 32.9207H135.894V112.536H157.557V32.9207Z" fill="black"></path><path d="M183.55 112.527H160.8L219.166 32.9207H240.829L183.55 112.527Z" fill="black"></path><path d="M218.079 112.527H240.829L182.463 32.9207H160.8L218.079 112.527Z" fill="black"></path><path d="M146.726 26.1107C153.994 26.1107 159.886 20.2656 159.886 13.0553C159.886 5.84508 153.994 0 146.726 0C139.458 0 133.566 5.84508 133.566 13.0553C133.566 20.2656 139.458 26.1107 146.726 26.1107Z" fill="black"></path><path d="M33.5467 80.5994H66.1016L21.6631 112.528" fill="black"></path></g><defs><clipPath id="clip0"><rect width="782" height="115" fill="white"></rect></clipPath></defs></svg> 